<svg width="1000" height="1000" viewBox="0 0 1000 1000" fill="none" xmlns="http://www.w3.org/2000/svg">
<rect width="1000" height="1000" rx="100" fill="#282A37"/>
<path d="M537.951 687.37C490.64 713.37 430.145 697.941 402.83 652.908L205 326.753L230.699 312.63C278.009 286.63 338.504 302.06 365.82 347.092L563.65 673.247L537.951 687.37Z" fill="white"/>
<path d="M662.399 619.502C615.089 645.501 554.594 630.072 527.28 585.04L378.907 340.423L404.606 326.3C451.916 300.301 512.412 315.73 539.726 360.763L688.099 605.379L662.399 619.502Z" fill="white"/>
<path d="M769.301 522.702C721.991 548.702 661.495 533.273 634.18 488.241L559.994 365.932L585.693 351.809C633.003 325.809 693.499 341.239 720.814 386.271L795 508.58L769.301 522.702Z" fill="white"/>
</svg>
