<svg width="452" height="306" viewBox="0 0 452 306" fill="none" xmlns="http://www.w3.org/2000/svg">
<g clip-path="url(#clip0_42_12)">
<path d="M254.707 296.338C218.515 316.228 172.236 304.425 151.34 269.975L0 20.4659L19.6597 9.66184C55.852 -10.2279 102.131 1.57554 123.027 36.0255L274.367 285.534L254.707 296.338Z" fill="white"/>
<path d="M349.911 244.419C313.719 264.309 267.44 252.506 246.544 218.056L133.039 30.9239L152.699 20.1198C188.891 0.230136 235.17 12.0335 256.066 46.4835L369.571 233.615L349.911 244.419Z" fill="white"/>
<path d="M431.69 170.367C395.498 190.257 349.219 178.454 328.323 144.004L271.57 50.438L291.23 39.634C327.422 19.7443 373.702 31.5477 394.598 65.9977L451.35 159.563L431.69 170.367Z" fill="white"/>
</g>
<defs>
<clipPath id="clip0_42_12">
<rect width="452" height="306" fill="white"/>
</clipPath>
</defs>
</svg>
